<?xml version="1.0" standalone="no"?>
<!DOCTYPE svg PUBLIC "-//W3C//DTD SVG 20010904//EN"
 "http://www.w3.org/TR/2001/REC-SVG-20010904/DTD/svg10.dtd">
<svg version="1.0" xmlns="http://www.w3.org/2000/svg"
 width="155.000000pt" height="193.000000pt" viewBox="0 0 155.000000 193.000000"
 preserveAspectRatio="xMidYMid meet">
<metadata>
Created by potrace 1.14, written by Peter Selinger 2001-2017
</metadata>
<g transform="translate(0.000000,193.000000) scale(0.100000,-0.100000)"
fill="#000000" stroke="none">
<path d="M604 1389 c-4 -7 1 -16 10 -21 22 -12 23 -120 1 -138 -21 -18 -9 -30
31 -30 24 0 34 5 34 15 0 8 -4 15 -10 15 -5 0 -10 19 -9 43 l0 42 19 -42 c13
-28 26 -43 38 -43 11 0 26 16 39 43 l22 42 0 -36 c1 -21 -5 -42 -14 -49 -22
-18 -9 -30 36 -30 28 0 39 4 39 15 0 8 -4 15 -10 15 -6 0 -10 30 -10 70 0 40
4 70 10 70 6 0 10 7 10 15 0 10 -10 15 -30 15 -26 0 -33 -7 -59 -57 l-29 -58
-25 58 c-23 51 -29 57 -56 57 -16 0 -33 -5 -37 -11z"/>
<path d="M856 1391 c-3 -5 1 -14 9 -21 10 -8 15 -31 15 -70 0 -39 -5 -62 -15
-70 -22 -18 -9 -30 36 -30 28 0 39 4 39 15 0 8 -4 15 -10 15 -5 0 -10 11 -10
25 0 38 27 30 50 -15 15 -30 26 -40 45 -40 29 0 43 18 20 26 -21 9 -48 61 -35
69 16 10 12 72 -6 89 -17 18 -128 23 -138 7z"/>
<path d="M695 902 c-50 -24 -101 -80 -116 -130 -22 -75 22 -161 105 -205 57
-30 165 -30 221 0 144 77 155 235 21 318 -63 39 -168 46 -231 17z m170 -27
c20 -9 24 -14 13 -14 -17 -1 -17 -2 1 -20 12 -12 28 -17 43 -14 21 4 28 -1 41
-30 39 -81 0 -174 -85 -206 -39 -15 -35 -1 14 43 l42 39 -35 18 c-19 10 -42
18 -51 19 -20 0 -24 -30 -7 -47 6 -6 8 -25 4 -47 -6 -27 -12 -36 -29 -38 -130
-9 -225 83 -196 190 7 27 18 43 31 47 24 8 69 -12 69 -30 0 -6 13 -21 29 -33
24 -17 30 -19 35 -7 3 8 14 15 24 15 10 0 28 11 39 24 19 22 20 25 4 29 -21 5
-47 -19 -28 -26 7 -3 4 -6 -5 -6 -16 -1 -23 16 -19 42 1 8 -25 10 -93 7 -58
-2 -55 12 8 41 48 22 109 24 151 4z"/>
</g>
</svg>
